<svg width="1056" height="672" xmlns="http://www.w3.org/2000/svg" xmlns:xlink="http://www.w3.org/1999/xlink" overflow="hidden"><defs><clipPath id="clip0"><rect x="0" y="0" width="1056" height="672"/></clipPath></defs><g clip-path="url(#clip0)"><rect x="0" y="0" width="1056" height="672" fill="#FFFFFF"/><path d="M157.5 188.5C157.5 210.591 139.592 228.5 117.5 228.5 95.4086 228.5 77.5001 210.591 77.5001 188.5 77.5001 166.409 95.4086 148.5 117.5 148.5 139.592 148.5 157.5 166.409 157.5 188.5Z" stroke="#000000" stroke-width="0.929449" stroke-miterlimit="8" fill-rule="evenodd"/><text fill="#FFFFFF" font-family="DejaVu Sans Mono,DejaVu Sans Mono_MSFontService,sans-serif" font-weight="700" font-size="32" transform="translate(88.6147 200)">Run</text><path d="M342.24 76.5001 301.223 76.5001C293.392 76.5001 290.833 74.2994 293.549 69.8994L316.925 32.1007C319.64 27.6995 324.913 25.5001 332.744 25.5001L414.777 25.5001C422.608 25.5001 425.167 27.6995 422.451 32.1007L399.075 69.8994C396.36 74.2994 391.087 76.5001 383.256 76.5001Z" stroke="#000000" stroke-width="0.929449" stroke-miterlimit="8" fill="#FFFFFF" fill-rule="evenodd"/><text font-family="DejaVu Sans Mono,DejaVu Sans Mono_MSFontService,sans-serif" font-weight="400" font-size="21" transform="translate(331.849 58)">file</text><path d="M528 153.5 580.5 188.501 528 223.5 475.5 188.501Z" stroke="#000000" stroke-width="1.06425" stroke-miterlimit="8" fill="#FFFFFF" fill-rule="evenodd"/><text font-family="DejaVu Sans Mono,DejaVu Sans Mono_MSFontService,sans-serif" font-weight="400" font-size="16" transform="translate(498.846 193)">option</text><path d="M433.85 153.5C443.045 153.5 450.5 158.201 450.5 164L450.5 213C450.5 218.799 443.045 223.5 433.85 223.5L257.15 223.5C247.955 223.5 240.5 218.799 240.5 213L240.5 164C240.5 158.201 247.955 153.5 257.15 153.5Z" stroke="#000000" stroke-width="0.929449" stroke-miterlimit="8" fill="#FFFFFF" fill-rule="evenodd"/><text font-family="DejaVu Sans Mono,DejaVu Sans Mono_MSFontService,sans-serif" font-weight="400" font-size="12" transform="translate(251.857 192)">FastaToString.reader(file)</text><path d="M109.729 396.021 946.048 396.021 946.048 428.021 109.729 428.021Z" fill="#FFFFFF" fill-rule="evenodd"/><path d="M109.729 428.021 461.359 428.021 461.359 456.821 109.729 456.821Z" fill="#FFFFFF" fill-rule="evenodd"/><path d="M461.359 428.021 662.913 428.021 662.913 456.821 461.359 456.821Z" fill="#FFFFFF" fill-rule="evenodd"/><path d="M662.913 428.021 946.048 428.021 946.048 456.821 662.913 456.821Z" fill="#FFFFFF" fill-rule="evenodd"/><path d="M109.729 456.821 235.811 456.821 235.811 503.344 109.729 503.344Z" fill="#FFFFFF" fill-rule="evenodd"/><path d="M235.811 456.821 461.359 456.821 461.359 503.344 235.811 503.344Z" fill="#FFFFFF" fill-rule="evenodd"/><path d="M461.359 456.821 662.913 456.821 662.913 503.344 461.359 503.344Z" fill="#FFFFFF" fill-rule="evenodd"/><path d="M662.913 456.821 796.322 456.821 796.322 503.344 662.913 503.344Z" fill="#FFFFFF" fill-rule="evenodd"/><path d="M796.322 456.821 946.048 456.821 946.048 503.344 796.322 503.344Z" fill="#FFFFFF" fill-rule="evenodd"/><path d="M109.729 503.344 235.811 503.344 235.811 551.344 109.729 551.344Z" fill="#FFFFFF" fill-rule="evenodd"/><path d="M235.811 503.344 461.359 503.344 461.359 551.344 235.811 551.344Z" fill="#FFFFFF" fill-rule="evenodd"/><path d="M461.359 503.344 662.913 503.344 662.913 551.344 461.359 551.344Z" fill="#FFFFFF" fill-rule="evenodd"/><path d="M662.913 503.344 796.322 503.344 796.322 655.467 662.913 655.467Z" fill="#FFFFFF" fill-rule="evenodd"/><path d="M796.322 503.344 946.048 503.344 946.048 551.344 796.322 551.344Z" fill="#FFFFFF" fill-rule="evenodd"/><path d="M109.729 551.344 235.811 551.344 235.811 580.144 109.729 580.144Z" fill="#FFFFFF" fill-rule="evenodd"/><path d="M235.811 551.344 461.359 551.344 461.359 580.144 235.811 580.144Z" fill="#FFFFFF" fill-rule="evenodd"/><path d="M461.359 551.344 662.913 551.344 662.913 655.467 461.359 655.467Z" fill="#FFFFFF" fill-rule="evenodd"/><path d="M796.322 551.344 946.048 551.344 946.048 580.144 796.322 580.144Z" fill="#FFFFFF" fill-rule="evenodd"/><path d="M109.729 580.144 235.811 580.144 235.811 608.944 109.729 608.944Z" fill="#FFFFFF" fill-rule="evenodd"/><path d="M235.811 580.144 461.359 580.144 461.359 608.944 235.811 608.944Z" fill="#FFFFFF" fill-rule="evenodd"/><path d="M796.322 580.144 946.048 580.144 946.048 655.467 796.322 655.467Z" fill="#FFFFFF" fill-rule="evenodd"/><path d="M109.729 608.944 235.811 608.944 235.811 655.467 109.729 655.467Z" fill="#FFFFFF" fill-rule="evenodd"/><path d="M235.811 608.944 461.359 608.944 461.359 655.467 235.811 655.467Z" fill="#FFFFFF" fill-rule="evenodd"/><path d="M461.359 427.354 461.359 655.967" stroke="#000000" stroke-width="1.33333" stroke-linejoin="round" stroke-miterlimit="10" fill="none" fill-rule="evenodd"/><path d="M662.913 427.354 662.913 655.967" stroke="#000000" stroke-width="1.33333" stroke-linejoin="round" stroke-miterlimit="10" fill="none" fill-rule="evenodd"/><path d="M796.322 456.154 796.322 655.967" stroke="#000000" stroke-width="1.33333" stroke-linejoin="round" stroke-miterlimit="10" fill="none" fill-rule="evenodd"/><path d="M109.229 428.021 946.548 428.021" stroke="#000000" stroke-width="1.33333" stroke-linejoin="round" stroke-miterlimit="10" fill="none" fill-rule="evenodd"/><path d="M662.246 456.821 946.548 456.821" stroke="#000000" stroke-width="1.33333" stroke-linejoin="round" stroke-miterlimit="10" fill="none" fill-rule="evenodd"/><path d="M109.729 395.521 109.729 655.967" stroke="#000000" stroke-linejoin="round" stroke-miterlimit="10" fill="none" fill-rule="evenodd"/><path d="M946.048 395.521 946.048 655.967" stroke="#000000" stroke-linejoin="round" stroke-miterlimit="10" fill="none" fill-rule="evenodd"/><path d="M109.229 396.021 946.548 396.021" stroke="#000000" stroke-linejoin="round" stroke-miterlimit="10" fill="none" fill-rule="evenodd"/><path d="M109.229 655.467 946.548 655.467" stroke="#000000" stroke-linejoin="round" stroke-miterlimit="10" fill="none" fill-rule="evenodd"/><text font-family="Calibri,Calibri_MSFontService,sans-serif" font-weight="700" font-size="19" transform="translate(465.389 418)">Class Sequences<tspan font-size="16" x="-209.708" y="30">Methods</tspan><tspan font-size="16" x="63.4343" y="30">Attributes</tspan><tspan font-size="16" x="288.675" y="30">Class Sequence</tspan><tspan font-family="Arial,Arial_MSFontService,sans-serif" font-weight="400" font-size="16" x="-346.06" y="59">•</tspan><tspan font-weight="400" font-size="16" x="-316.06" y="59">Constructor</tspan><tspan font-family="Arial,Arial_MSFontService,sans-serif" font-weight="400" font-size="16" x="-219.977" y="59">•</tspan><tspan font-weight="400" font-size="16" x="-189.977" y="59">browse(String)</tspan><tspan font-family="Arial,Arial_MSFontService,sans-serif" font-weight="400" font-size="16" x="5.57086" y="59">•</tspan><tspan font-weight="400" font-size="16" x="35.5709" y="59">size</tspan><tspan font-size="16" x="234.366" y="59">Methods</tspan><tspan font-size="16" x="372.483" y="59">Attributes</tspan><tspan font-family="Arial,Arial_MSFontService,sans-serif" font-weight="400" font-size="16" x="-346.06" y="105">•</tspan><tspan font-weight="400" font-size="16" x="-316.06" y="105">add()</tspan><tspan font-family="Arial,Arial_MSFontService,sans-serif" font-weight="400" font-size="16" x="-219.977" y="105">•</tspan><tspan font-weight="400" font-size="16" x="-189.977" y="105">removeSeqs</tspan><tspan font-weight="400" font-size="16" x="-110.417" y="105">(List&lt;Sequenc</tspan><tspan font-weight="400" font-size="16" x="-189.977" y="124">e&gt;)</tspan><tspan font-family="Arial,Arial_MSFontService,sans-serif" font-weight="400" font-size="16" x="5.57086" y="105">•</tspan><tspan font-weight="400" font-size="16" x="35.5709" y="105">elements</tspan><tspan font-family="Arial,Arial_MSFontService,sans-serif" font-weight="400" font-size="16" x="207.124" y="105">•</tspan><tspan font-weight="400" font-size="16" x="237.124" y="105">Constructor</tspan><tspan font-family="Arial,Arial_MSFontService,sans-serif" font-weight="400" font-size="16" x="340.534" y="105">•</tspan><tspan font-weight="400" font-size="16" x="370.534" y="105">id</tspan><tspan font-family="Arial,Arial_MSFontService,sans-serif" font-weight="400" font-size="16" x="-346.06" y="153">•</tspan><tspan font-weight="400" font-size="16" x="-316.06" y="153">getIds</tspan><tspan font-weight="400" font-size="16" x="-276.779" y="153">()</tspan><tspan font-family="Arial,Arial_MSFontService,sans-serif" font-weight="400" font-size="16" x="-219.977" y="153">•</tspan><tspan font-weight="400" font-size="16" x="-189.977" y="153">sortLength</tspan><tspan font-weight="400" font-size="16" x="-120.384" y="153">(String)</tspan><tspan font-family="Arial,Arial_MSFontService,sans-serif" font-weight="400" font-size="16" x="5.57086" y="153">•</tspan><tspan font-weight="400" font-size="16" x="35.5709" y="153">seqList</tspan><tspan font-weight="400" font-size="16" x="35.5709" y="172">(List&lt;Sequence&gt;)</tspan><tspan font-family="Arial,Arial_MSFontService,sans-serif" font-weight="400" font-size="16" x="340.534" y="153">•</tspan><tspan font-weight="400" font-size="16" x="370.534" y="153">seq</tspan><tspan font-family="Arial,Arial_MSFontService,sans-serif" font-weight="400" font-size="16" x="-346.06" y="182">•</tspan><tspan font-weight="400" font-size="16" x="-316.06" y="182">getSeqs</tspan><tspan font-weight="400" font-size="16" x="-265.446" y="182">()</tspan><tspan font-family="Arial,Arial_MSFontService,sans-serif" font-weight="400" font-size="16" x="-219.977" y="182">•</tspan><tspan font-weight="400" font-size="16" x="-189.977" y="182">writeFasta</tspan><tspan font-weight="400" font-size="16" x="-122.617" y="182">(String)</tspan><tspan font-family="Arial,Arial_MSFontService,sans-serif" font-weight="400" font-size="16" x="340.534" y="182">•</tspan><tspan font-weight="400" font-size="16" x="370.534" y="182">length</tspan><tspan font-family="Arial,Arial_MSFontService,sans-serif" font-weight="400" font-size="16" x="-346.06" y="211">•</tspan><tspan font-weight="400" font-size="16" x="-316.06" y="211">getLength</tspan><tspan font-weight="400" font-size="16" x="-251.519" y="211">()</tspan></text><path d="M965.24 214.5 924.223 214.5C916.392 214.5 913.833 212.256 916.549 207.77L939.925 169.23C942.64 164.743 947.913 162.5 955.744 162.5L1037.78 162.5C1045.61 162.5 1048.17 164.743 1045.45 169.23L1022.08 207.77C1019.36 212.256 1014.09 214.5 1006.26 214.5Z" stroke="#000000" stroke-width="0.929449" stroke-miterlimit="8" fill="#FFFFFF" fill-rule="evenodd"/><text font-family="DejaVu Sans Mono,DejaVu Sans Mono_MSFontService,sans-serif" font-weight="400" font-size="19" transform="translate(941.137 195)">outFile</text><path d="M818.395 265.5C821.767 265.5 824.5 268.992 824.5 273.3L824.5 309.7C824.5 314.008 821.767 317.5 818.395 317.5L753.605 317.5C750.233 317.5 747.5 314.008 747.5 309.7L747.5 273.3C747.5 268.992 750.233 265.5 753.605 265.5Z" stroke="#000000" stroke-width="0.929449" stroke-miterlimit="8" fill="#FFFFFF" fill-rule="evenodd"/><text font-family="DejaVu Sans Mono,DejaVu Sans Mono_MSFontService,sans-serif" font-weight="400" font-size="14" transform="translate(768.547 296)">none</text><path d="M818.395 128.5C821.767 128.5 824.5 131.992 824.5 136.3L824.5 172.7C824.5 177.008 821.767 180.5 818.395 180.5L753.605 180.5C750.233 180.5 747.5 177.008 747.5 172.7L747.5 136.3C747.5 131.992 750.233 128.5 753.605 128.5Z" stroke="#000000" stroke-width="0.929449" stroke-miterlimit="8" fill="#FFFFFF" fill-rule="evenodd"/><text font-family="DejaVu Sans Mono,DejaVu Sans Mono_MSFontService,sans-serif" font-weight="400" font-size="14" transform="translate(760.047 159)">browse</text><path d="M818.395 59.5001C821.767 59.5001 824.5 62.9923 824.5 67.3001L824.5 103.7C824.5 108.008 821.767 111.5 818.395 111.5L753.605 111.5C750.233 111.5 747.5 108.008 747.5 103.7L747.5 67.3001C747.5 62.9921 750.233 59.5001 753.605 59.5001Z" stroke="#000000" stroke-width="0.929449" stroke-miterlimit="8" fill="#FFFFFF" fill-rule="evenodd"/><text font-family="DejaVu Sans Mono,DejaVu Sans Mono_MSFontService,sans-serif" font-weight="400" font-size="14" transform="translate(760.046 90)">remove</text><path d="M815.62 196.5C820.524 196.5 824.5 199.992 824.5 204.3L824.5 240.7C824.5 245.008 820.524 248.5 815.62 248.5L721.38 248.5C716.476 248.5 712.5 245.008 712.5 240.7L712.5 204.3C712.5 199.992 716.476 196.5 721.38 196.5Z" stroke="#000000" stroke-width="0.929449" stroke-miterlimit="8" fill="#FFFFFF" fill-rule="evenodd"/><text font-family="DejaVu Sans Mono,DejaVu Sans Mono_MSFontService,sans-serif" font-weight="400" font-size="14" transform="translate(751.117 218)">sort <tspan font-size="14" x="-25.5" y="17">(</tspan>sa<tspan font-size="14" x="8.5" y="17">|| </tspan>sd)<tspan font-size="16" x="-88.6499" y="-93">pattern</tspan></text><path d="M157.5 188.167 234.168 188.167 234.168 188.833 157.5 188.833ZM232.835 184.5 240.835 188.5 232.835 192.5Z"/><path d="M342.833 76.5001 342.833 146.786 342.167 146.786 342.167 76.5001ZM346.5 145.453 342.5 153.453 338.5 145.453Z"/><path d="M528.209 396.735 528.168 230.167 528.835 230.167 528.876 396.735ZM524.502 231.501 528.5 223.5 532.502 231.499Z"/><path d="M326.833 223.5 326.833 390.069 326.167 390.069 326.167 223.5ZM330.5 388.735 326.5 396.735 322.5 388.735Z"/><path d="M0 0 53.8113 0.000944882" stroke="#000000" stroke-width="0.666667" stroke-miterlimit="8" fill="none" fill-rule="evenodd" transform="matrix(1 0 0 -1 580.5 188.501)"/><path d="M675.165 322.5C663.936 322.5 654.833 313.397 654.833 302.168L654.833 209.333C654.833 198.103 645.729 189 634.5 189 645.729 189 654.833 179.897 654.833 168.668L654.833 75.8325C654.833 64.6032 663.936 55.5001 675.165 55.5001M837.835 55.5001C849.064 55.5001 858.168 64.6032 858.168 75.8325L858.168 168.668C858.168 179.897 867.271 189 878.5 189 867.271 189 858.168 198.103 858.168 209.333L858.168 302.168C858.168 313.397 849.064 322.5 837.835 322.5" stroke="#000000" stroke-width="0.666667" stroke-miterlimit="8" fill="none" fill-rule="evenodd"/><path d="M878.5 188.167 919.477 188.167 919.477 188.833 878.5 188.833ZM918.144 184.5 926.144 188.5 918.144 192.5Z"/><path d="M747.5 153.5C742.806 153.5 739 152.866 739 152.083L739 120.917C739 120.134 735.194 119.5 730.5 119.5 735.194 119.5 739 118.866 739 118.083L739 86.9166C739 86.1343 742.806 85.5001 747.5 85.5001" stroke="#000000" stroke-width="0.666667" stroke-miterlimit="8" fill="none" fill-rule="evenodd"/><text font-family="DejaVu Sans Mono,DejaVu Sans Mono_MSFontService,sans-serif" font-weight="400" font-size="12" transform="translate(220.301 289)">Creates class <tspan font-size="12" x="0" y="15">Sequences for </tspan><tspan font-size="12" x="7.16667" y="29">all Sequence </tspan><tspan font-size="12" x="43" y="44">entries</tspan><tspan font-size="12" x="216.602" y="0">Option is a </tspan><tspan font-size="12" x="202.269" y="15">shorthand for </tspan><tspan font-size="12" x="209.435" y="29">the relevant </tspan><tspan font-size="12" x="180.769" y="44">Sequences method</tspan></text></g></svg>